<?xml version="1.0"?>
<svg xmlns="http://www.w3.org/2000/svg" xmlns:lc="http://www.librecad.org"
     width="700mm" height="700mm" viewBox="0 0 700 700">
    <!--<g lc:layername="box" lc:is_locked="false" lc:is_construction="false"-->
    <!--fill="none" stroke="black" stroke-width="1">-->
    <!--<path d="M0,700 L700,700 L700,0 L0,0 L0,700 Z "/>-->
    <!--</g>-->
    <g lc:layername="carbon" lc:is_locked="false" lc:is_construction="false"
       fill="none" stroke="black" stroke-width="8">
        <circle cx="148.23662144" cy="198.20998797" r="40"/>
        <circle cx="268.92066609" cy="218.94729956" r="40"/>
        <circle cx="289.65797768" cy="339.63134421" r="40"/>
        <circle cx="410.34202232" cy="360.36865579" r="40"/>
        <circle cx="431.07933391" cy="481.05270044" r="40"/>
        <circle cx="551.76337856" cy="501.79001203" r="40"/>
    </g>
    <g lc:layername="carbon-bonds" lc:is_locked="false" lc:is_construction="false"
       fill="none" stroke="black" stroke-width="4">
        <line x1="328.743617" y1="331.12765099" x2="376.33686811" y2="339.30566724"/>
        <line x1="323.66313189" y1="360.69433276" x2="371.256383" y2="368.87234901"/>
        <line x1="298.16167089" y1="300.54570488" x2="289.98365464" y2="252.95245377"/>
        <line x1="268.59498912" y1="305.62618999" x2="260.41697287" y2="258.03293888"/>
        <line x1="187.32226077" y1="189.70629475" x2="234.91551187" y2="197.884311"/>
        <line x1="182.24177565" y1="219.27297653" x2="229.83502676" y2="227.45099277"/>
        <line x1="439.58302713" y1="441.96706112" x2="431.40501088" y2="394.37381001"/>
        <line x1="410.01634536" y1="447.04754623" x2="401.83832911" y2="399.45429512"/>
        <line x1="470.16497324" y1="472.54900723" x2="517.75822435" y2="480.72702347"/>
        <line x1="465.08448813" y1="502.115689" x2="512.67773923" y2="510.29370525"/>
    </g>
    <g lc:layername="hydrogen" lc:is_locked="false" lc:is_construction="false"
       fill="none" stroke="black" stroke-width="6">
        <circle cx="329.53168248" cy="158.33628317" r="25"/>
        <circle cx="87.62560505" cy="258.82100436" r="25"/>
        <circle cx="133.72050333" cy="113.73115671" r="25"/>
        <circle cx="229.04696129" cy="400.24236059" r="25"/>
        <circle cx="470.95303871" cy="299.75763941" r="25"/>
        <circle cx="370.46831752" cy="541.66371683" r="25"/>
        <circle cx="612.37439495" cy="441.17899564" r="25"/>
        <circle cx="566.27949667" cy="586.26884329" r="25"/>
    </g>
    <g lc:layername="hydrogen-bonds" lc:is_locked="false" lc:is_construction="false"
       fill="none" stroke="black" stroke-width="2">
        <line x1="603.24361102" y1="464.4519152" x2="586.22057425" y2="481.47495197"/>
        <line x1="589.10147539" y1="450.30977958" x2="572.07843863" y2="467.33281634"/>
        <line x1="572.25477266" y1="561.99342204" x2="568.17781723" y2="538.26693903"/>
        <line x1="552.54365148" y1="565.38041211" x2="548.46669605" y2="541.6539291"/>
        <line x1="410.76427385" y1="515.50989613" x2="393.74123708" y2="532.5329329"/>
        <line x1="396.62213823" y1="501.36776051" x2="379.59910146" y2="518.39079727"/>
        <line x1="447.68011915" y1="308.88842334" x2="430.65708239" y2="325.91146011"/>
        <line x1="461.82225478" y1="323.03055896" x2="444.79921801" y2="340.05359573"/>
        <line x1="320.40089854" y1="181.60920273" x2="303.37786177" y2="198.63223949"/>
        <line x1="306.25876292" y1="167.4670671" x2="289.23572615" y2="184.49010387"/>
        <line x1="151.53330395" y1="158.3460709" x2="147.45634852" y2="134.61958789"/>
        <line x1="131.82218277" y1="161.73306097" x2="127.74522734" y2="138.00657796"/>
        <line x1="113.77942575" y1="218.52504803" x2="96.75638898" y2="235.5480848"/>
        <line x1="127.92156137" y1="232.66718366" x2="110.89852461" y2="249.69022042"/>
        <line x1="255.20078199" y1="359.94640427" x2="238.17774522" y2="376.96944104"/>
        <line x1="269.34291761" y1="374.08853989" x2="252.31988085" y2="391.11157666"/>
    </g>
</svg>
