<?xml version="1.0"?>
<svg xmlns="http://www.w3.org/2000/svg" xmlns:lc="http://www.librecad.org"
     width="3400" height="2600" viewBox="0 0 3400 2600">
    <g lc:layername="braces" lc:is_locked="false" lc:is_construction="false"
       fill="none" stroke="black" stroke-width="8">
        <line x1="3200" y1="1300" x2="2300" y2="400"/>
        <line x1="2300" y1="400" x2="2400" y2="300"/>
        <line x1="2400" y1="300" x2="3400" y2="1300"/>
        <line x1="3400" y1="1300" x2="2400" y2="2300"/>
        <line x1="2400" y1="2300" x2="2300" y2="2200"/>
        <line x1="2300" y1="2200" x2="3200" y2="1300"/>
        <line x1="200" y1="1300" x2="1100" y2="400"/>
        <line x1="1100" y1="400" x2="1000" y2="300"/>
        <line x1="1000" y1="300" x2="0" y2="1300"/>
        <line x1="0" y1="1300" x2="1000" y2="2300"/>
        <line x1="1000" y1="2300" x2="1100" y2="2200"/>
        <line x1="1100" y1="2200" x2="200" y2="1300"/>
    </g>
    <g lc:layername="divider" lc:is_locked="false" lc:is_construction="false"
       fill="none" stroke="black" stroke-width="4">
        <line x1="1300" y1="2600" x2="1300" y2="2400"/>
        <line x1="2100" y1="2600" x2="2100" y2="2400"/>
        <circle cx="1700" cy="600" r="50"/>
        <line x1="1805.93361812" y1="439.55745411" x2="1782.11145618" y2="435.77708764"/>
        <line x1="1617.88854382" y1="435.77708764" x2="1594.06638188" y2="439.55745411"/>
        <line x1="1782.11145618" y1="435.77708764" x2="1722.36067978" y2="555.27864045"/>
        <line x1="1677.63932022" y1="555.27864045" x2="1617.88854382" y2="435.77708764"/>
        <line x1="1300" y1="2600" x2="1690.19419324" y2="649.02903378"/>
        <line x1="1709.80580676" y1="649.02903378" x2="2100" y2="2600"/>
        <line x1="1821.86545749" y1="545.76971658" x2="1805.93361812" y2="439.55745411"/>
        <line x1="1594.06638188" y1="439.55745411" x2="1578.13454251" y2="545.76971658"/>
        <path d="M1747.37087713,584 A190,190 0 1,0 1652.62912287,584 "/>
        <path d="M1749.83974318,604 A210,210 0 1,0 1650.16025682,604 "/>
        <line x1="2100" y1="2400" x2="1825.28057539" y2="568.53716928"/>
        <line x1="1574.71942461" y1="568.53716928" x2="1300" y2="2400"/>
    </g>
    <g lc:layername="handles" lc:is_locked="false" lc:is_construction="false"
       fill="none" stroke="black" stroke-width="4">
        <line x1="2100" y1="1280" x2="2120" y2="1280"/>
        <line x1="2120" y1="1280" x2="2120" y2="1320"/>
        <line x1="2120" y1="1320" x2="2100" y2="1320"/>
        <line x1="2100" y1="1320" x2="2100" y2="1280"/>
        <line x1="1300" y1="1280" x2="1300" y2="1320"/>
        <line x1="1300" y1="1320" x2="1280" y2="1320"/>
        <line x1="1280" y1="1320" x2="1280" y2="1280"/>
        <line x1="1280" y1="1280" x2="1300" y2="1280"/>
        <line x1="1670" y1="1200" x2="1730" y2="1200"/>
        <line x1="1730" y1="1200" x2="1730" y2="1400"/>
        <line x1="1730" y1="1400" x2="1670" y2="1400"/>
        <line x1="1670" y1="1400" x2="1670" y2="1200"/>
        <line x1="1680" y1="0" x2="1720" y2="0"/>
        <line x1="1720" y1="170" x2="1680" y2="170"/>
        <line x1="1720" y1="0" x2="1720" y2="170"/>
        <line x1="1680" y1="170" x2="1680" y2="0"/>
    </g>
    <g lc:layername="relief" lc:is_locked="false" lc:is_construction="false"
       fill="none" stroke="black" stroke-width="1">
        <line x1="1500" y1="1600" x2="1420" y2="1600"/>
        <line x1="1900" y1="1600" x2="1980" y2="1600"/>
    </g>
    <g lc:layername="screws" lc:is_locked="false" lc:is_construction="false"
       fill="none" stroke="black" stroke-width="2">
        <line x1="1466.5" y1="1290" x2="1300" y2="1290"/>
        <line x1="1463.5" y1="1310" x2="1300" y2="1310"/>
        <line x1="1670" y1="1290" x2="1562" y2="1290"/>
        <line x1="1670" y1="1310" x2="1558" y2="1310"/>
        <line x1="1933.5" y1="1290" x2="2100" y2="1290"/>
        <line x1="1936.5" y1="1310" x2="2100" y2="1310"/>
        <line x1="1730" y1="1310" x2="1842" y2="1310"/>
        <line x1="1730" y1="1290" x2="1838" y2="1290"/>
        <line x1="1710" y1="210.26334039" x2="1710" y2="551.01020514"/>
        <line x1="1690" y1="551.01020514" x2="1690" y2="210.26334039"/>
        <line x1="1690" y1="190.23823037" x2="1690" y2="170"/>
        <line x1="1710" y1="190.23823037" x2="1710" y2="170"/>
    </g>
</svg>
